HIERARCHY
ROOT Hips
{
    OFFSET 0.000000 0.000000 0.000000
    CHANNELS 6 Xposition Yposition Zposition Zrotation Xrotation Yrotation
    JOINT Spine
    {
        OFFSET -0.000000 7.284621 0.000000
        CHANNELS 3 Zrotation Xrotation Yrotation
        JOINT Spine1
        {
            OFFSET -0.000000 19.968920 0.000000
            CHANNELS 3 Zrotation Xrotation Yrotation
            JOINT Neck
            {
                OFFSET -0.000000 21.745657 0.000000
                CHANNELS 3 Zrotation Xrotation Yrotation
                JOINT Head
                {
                    OFFSET -0.000000 13.769711 1.776737
                    CHANNELS 3 Zrotation Xrotation Yrotation
                    End Site
                    {
                        OFFSET -0.000000 17.767368 0.000000
                    }
                }
            }
            JOINT LeftShoulder
            {
                OFFSET 3.594505 17.711157 -0.013107
                CHANNELS 3 Zrotation Xrotation Yrotation
                JOINT LeftArm
                {
                    OFFSET 12.210003 0.000000 0.000000
                    CHANNELS 3 Zrotation Xrotation Yrotation
                    JOINT LeftForeArm
                    {
                        OFFSET 24.535166 0.000000 0.000000
                        CHANNELS 3 Zrotation Xrotation Yrotation
                        JOINT LeftHand
                        {
                            OFFSET 20.235195 0.000000 0.000000
                            CHANNELS 3 Zrotation Xrotation Yrotation
                            JOINT LeftHandThumb1
                            {
                                OFFSET 1.906737 -2.166747 3.033446
                                CHANNELS 3 Zrotation Xrotation Yrotation
                                JOINT LeftHandThumb2
                                {
                                    OFFSET 2.043247 0.000000 1.332553
                                    CHANNELS 3 Zrotation Xrotation Yrotation
                                    JOINT LeftHandThumb3
                                    {
                                        OFFSET 2.665105 0.000000 0.000000
                                        CHANNELS 3 Zrotation Xrotation Yrotation
                                        End Site
                                        {
                                            OFFSET 2.367595 0.000000 0.000000
                                        }
                                    }
                                }
                            }
                            JOINT LeftHandIndex1
                            {
                                OFFSET 7.800290 0.000000 3.033446
                                CHANNELS 3 Zrotation Xrotation Yrotation
                                JOINT LeftHandIndex2
                                {
                                    OFFSET 4.441842 0.000000 0.000000
                                    CHANNELS 3 Zrotation Xrotation Yrotation
                                    JOINT LeftHandIndex3
                                    {
                                        OFFSET 2.220921 0.000000 0.000000
                                        CHANNELS 3 Zrotation Xrotation Yrotation
                                        End Site
                                        {
                                            OFFSET 1.972996 0.000000 0.000000
                                        }
                                    }
                                }
                            }
                            JOINT LeftHandMiddle1
                            {
                                OFFSET 7.800290 0.000000 1.005371
                                CHANNELS 3 Zrotation Xrotation Yrotation
                                JOINT LeftHandMiddle2
                                {
                                    OFFSET 4.886026 0.000000 0.000000
                                    CHANNELS 3 Zrotation Xrotation Yrotation
                                    JOINT LeftHandMiddle3
                                    {
                                        OFFSET 2.665105 0.000000 0.000000
                                        CHANNELS 3 Zrotation Xrotation Yrotation
                                        End Site
                                        {
                                            OFFSET 2.367595 0.000000 0.000000
                                        }
                                    }
                                }
                            }
                            JOINT LeftHandRing1
                            {
                                OFFSET 7.366940 0.000000 -1.005371
                                CHANNELS 3 Zrotation Xrotation Yrotation
                                JOINT LeftHandRing2
                                {
                                    OFFSET 4.441842 0.000000 0.000000
                                    CHANNELS 3 Zrotation Xrotation Yrotation
                                    JOINT LeftHandRing3
                                    {
                                        OFFSET 2.220921 0.000000 0.000000
                                        CHANNELS 3 Zrotation Xrotation Yrotation
                                        End Site
                                        {
                                            OFFSET 1.972996 0.000000 0.000000
                                        }
                                    }
                                }
                            }
                            JOINT LeftHandPinky1
                            {
                                OFFSET 6.933591 0.000000 -3.033446
                                CHANNELS 3 Zrotation Xrotation Yrotation
                                JOINT LeftHandPinky2
                                {
                                    OFFSET 3.553473 0.000000 0.000000
                                    CHANNELS 3 Zrotation Xrotation Yrotation
                                    JOINT LeftHandPinky3
                                    {
                                        OFFSET 1.776737 0.000000 0.000000
                                        CHANNELS 3 Zrotation Xrotation Yrotation
                                        End Site
                                        {
                                            OFFSET 1.578397 0.000000 0.000000
                                        }
                                    }
                                }
                            }
                        }
                    }
                }
            }
            JOINT RightShoulder
            {
                OFFSET -3.500468 17.711157 -0.013107
                CHANNELS 3 Zrotation Xrotation Yrotation
                JOINT RightArm
                {
                    OFFSET -12.210003 0.000000 0.000000
                    CHANNELS 3 Zrotation Xrotation Yrotation
                    JOINT RightForeArm
                    {
                        OFFSET -24.535166 0.000000 0.000000
                        CHANNELS 3 Zrotation Xrotation Yrotation
                        JOINT RightHand
                        {
                            OFFSET -20.235195 0.000000 0.000000
                            CHANNELS 3 Zrotation Xrotation Yrotation
                            JOINT RightHandThumb1
                            {
                                OFFSET -1.906737 -2.166747 3.033446
                                CHANNELS 3 Zrotation Xrotation Yrotation
                                JOINT RightHandThumb2
                                {
                                    OFFSET -2.043247 0.000000 1.332553
                                    CHANNELS 3 Zrotation Xrotation Yrotation
                                    JOINT RightHandThumb3
                                    {
                                        OFFSET -2.665105 0.000000 0.000000
                                        CHANNELS 3 Zrotation Xrotation Yrotation
                                        End Site
                                        {
                                            OFFSET -2.367595 0.000000 0.000000
                                        }
                                    }
                                }
                            }
                            JOINT RightHandIndex1
                            {
                                OFFSET -7.800290 0.000000 3.033446
                                CHANNELS 3 Zrotation Xrotation Yrotation
                                JOINT RightHandIndex2
                                {
                                    OFFSET -4.441842 0.000000 0.000000
                                    CHANNELS 3 Zrotation Xrotation Yrotation
                                    JOINT RightHandIndex3
                                    {
                                        OFFSET -2.220921 0.000000 0.000000
                                        CHANNELS 3 Zrotation Xrotation Yrotation
                                        End Site
                                        {
                                            OFFSET -1.972996 0.000000 0.000000
                                        }
                                    }
                                }
                            }
                            JOINT RightHandMiddle1
                            {
                                OFFSET -7.800290 0.000000 1.005371
                                CHANNELS 3 Zrotation Xrotation Yrotation
                                JOINT RightHandMiddle2
                                {
                                    OFFSET -4.886026 0.000000 0.000000
                                    CHANNELS 3 Zrotation Xrotation Yrotation
                                    JOINT RightHandMiddle3
                                    {
                                        OFFSET -2.665105 0.000000 0.000000
                                        CHANNELS 3 Zrotation Xrotation Yrotation
                                        End Site
                                        {
                                            OFFSET -2.367595 0.000000 0.000000
                                        }
                                    }
                                }
                            }
                            JOINT RightHandRing1
                            {
                                OFFSET -7.366940 0.000000 -1.005371
                                CHANNELS 3 Zrotation Xrotation Yrotation
                                JOINT RightHandRing2
                                {
                                    OFFSET -4.441842 0.000000 0.000000
                                    CHANNELS 3 Zrotation Xrotation Yrotation
                                    JOINT RightHandRing3
                                    {
                                        OFFSET -2.220921 0.000000 0.000000
                                        CHANNELS 3 Zrotation Xrotation Yrotation
                                        End Site
                                        {
                                            OFFSET -1.972996 0.000000 0.000000
                                        }
                                    }
                                }
                            }
                            JOINT RightHandPinky1
                            {
                                OFFSET -6.933591 0.000000 -3.033446
                                CHANNELS 3 Zrotation Xrotation Yrotation
                                JOINT RightHandPinky2
                                {
                                    OFFSET -3.553473 0.000000 0.000000
                                    CHANNELS 3 Zrotation Xrotation Yrotation
                                    JOINT RightHandPinky3
                                    {
                                        OFFSET -1.776737 0.000000 0.000000
                                        CHANNELS 3 Zrotation Xrotation Yrotation
                                        End Site
                                        {
                                            OFFSET -1.578397 0.000000 0.000000
                                        }
                                    }
                                }
                            }
                        }
                    }
                }
            }
        }
    }
    JOINT LeftUpLeg
    {
        OFFSET 8.883684 0.000000 0.000000
        CHANNELS 3 Zrotation Xrotation Yrotation
        JOINT LeftLeg
        {
            OFFSET -0.000000 -38.184189 0.000000
            CHANNELS 3 Zrotation Xrotation Yrotation
            JOINT LeftFoot
            {
                OFFSET -0.000000 -35.840691 0.000000
                CHANNELS 3 Zrotation Xrotation Yrotation
                JOINT LeftToeBase
                {
                    OFFSET -0.000000 -5.774395 13.325527
                    CHANNELS 3 Zrotation Xrotation Yrotation
                    End Site
                    {
                        OFFSET -0.000000 0.000000 3.553473
                    }
                }
            }
        }
    }
    JOINT RightUpLeg
    {
        OFFSET -8.883684 0.000000 0.000000
        CHANNELS 3 Zrotation Xrotation Yrotation
        JOINT RightLeg
        {
            OFFSET -0.000000 -38.184189 0.000000
            CHANNELS 3 Zrotation Xrotation Yrotation
            JOINT RightFoot
            {
                OFFSET -0.000000 -35.840691 0.000000
                CHANNELS 3 Zrotation Xrotation Yrotation
                JOINT RightToeBase
                {
                    OFFSET -0.000000 -5.774395 13.325527
                    CHANNELS 3 Zrotation Xrotation Yrotation
                    End Site
                    {
                        OFFSET -0.000000 0.000000 3.553473
                    }
                }
            }
        }
    }
}
MOTION
Frames:    5
Frame Time:    0.008333
-2.512580    84.058990    108.977150    -0.239925    7.938895    8.779078    -2.279006    4.951634    -1.156039    -3.130954    34.835239    0.557890    27.578159    18.232697    7.695547    22.153635    -17.005527    16.764963    8.092004    5.454418    -15.914271    -67.550240    33.170574    -23.182076    68.833778    -53.829823    -80.867676    2.779759    -45.711224    -21.253010    7.110064    5.501674    15.936366    -0.000000    0.000000    14.127757    -0.000000    0.000000    28.255514    1.179851    0.000000    -0.000000    0.000000    0.000000    0.000000    0.000000    0.000000    0.000000    -26.443254    -12.208323    7.790512    -36.299995    0.000000    0.000000    -26.400003    0.000000    0.000000    -54.485607    -26.611666    9.029850    -72.600006    0.000000    0.000000    -52.799992    0.000000    0.000000    -88.156021    -39.985386    1.185168    -110.000000    0.000000    0.000000    -80.000000    0.000000    0.000000    -9.781218    4.517008    9.116280    89.157272    37.646011    -2.256551    -90.403931    -43.491714    55.306404    -14.162037    -56.584354    10.518510    -0.935895    1.948356    -4.024744    0.000000    0.000000    -4.306960    0.000000    0.000000    -8.613920    10.663465    0.000000    -0.000000    21.326931    0.000000    -0.000000    10.663465    0.000000    -0.000000    31.578146    0.000000    -0.000000    50.589046    0.000000    -0.000000    31.578146    0.000000    -0.000000    52.492825    0.000000    -0.000000    79.851166    0.000000    -0.000000    52.492825    0.000000    -0.000000    74.041283    0.000000    -0.000000    110.000000    0.000000    -0.000000    74.041283    0.000000    -0.000000    -2.800912    -18.871155    3.795269    -3.546748    17.982340    8.459950    6.085398    -1.543708    -9.768312    -3.133675    -2.838205    7.592371    -5.959378    -22.918928    -0.163701    11.473940    28.234533    -21.033903    -3.571046    0.368336    7.922189    4.188151    -4.320878    -7.274705    
-2.602121    84.054466    108.758675    -0.184530    8.393375    8.774205    -2.376623    5.365527    -0.930504    -2.983246    34.980572    0.586228    27.900335    17.631382    7.591709    22.426758    -17.276012    16.670179    8.140520    5.420504    -15.917881    -67.456108    33.233192    -23.353779    69.006004    -53.866985    -80.718407    2.834213    -45.601978    -21.221165    7.148971    5.488337    15.952142    -0.000000    0.000000    14.133983    -0.000000    0.000000    28.267962    1.196322    0.000000    -0.000000    0.000000    0.000000    0.000000    0.000000    0.000000    0.000000    -26.440521    -12.211061    7.788624    -36.299995    0.000000    0.000000    -26.400003    0.000000    0.000000    -54.498905    -26.616247    9.020906    -72.600006    0.000000    0.000000    -52.799992    0.000000    0.000000    -88.191368    -39.985947    1.162457    -110.000000    0.000000    0.000000    -80.000000    0.000000    0.000000    -9.779678    4.409505    9.207127    89.254112    37.237457    -2.616773    -90.656006    -43.551193    55.254097    -14.442594    -56.635151    10.279005    -0.945782    1.955305    -4.043486    0.000000    0.000000    -4.332208    0.000000    0.000000    -8.664415    10.669148    0.000000    -0.000000    21.338297    0.000000    -0.000000    10.669148    0.000000    -0.000000    31.589283    0.000000    -0.000000    50.596664    0.000000    -0.000000    31.589283    0.000000    -0.000000    52.509415    0.000000    -0.000000    79.855026    0.000000    -0.000000    52.509415    0.000000    -0.000000    74.063484    0.000000    -0.000000    110.000000    0.000000    -0.000000    74.063484    0.000000    -0.000000    -2.875725    -19.612131    3.549521    -3.630425    18.208794    8.599827    6.125520    -1.322318    -9.676203    -3.130512    -2.861268    7.578505    -5.867948    -22.977680    -0.310684    10.999084    27.405123    -20.642328    -3.423912    -0.051483    7.862537    4.170643    -3.980100    -7.231679    
-2.686087    84.014130    108.552567    -0.137907    8.798825    8.711744    -2.448709    5.788707    -0.668330    -2.862571    35.100845    0.634338    28.170610    16.997280    7.509238    22.704266    -17.564936    16.575745    8.183377    5.399671    -15.906556    -67.384628    33.276756    -23.518446    69.128525    -53.902939    -80.610397    2.865092    -45.544521    -21.183126    7.196864    5.477376    15.979816    -0.000000    0.000000    14.148925    -0.000000    0.000000    28.297850    1.237646    0.000000    -0.000000    0.000000    0.000000    0.000000    0.000000    0.000000    0.000000    -26.419708    -12.212965    7.789308    -36.299995    0.000000    0.000000    -26.400003    0.000000    0.000000    -54.500755    -26.620573    9.015564    -72.600006    0.000000    0.000000    -52.799992    0.000000    0.000000    -88.223206    -39.986435    1.141996    -110.000000    0.000000    0.000000    -80.000000    0.000000    0.000000    -9.771661    4.295046    9.294678    89.336533    36.825409    -2.969367    -90.972244    -43.583202    55.161587    -14.732817    -56.703964    10.052674    -0.944544    1.961922    -4.054062    0.000000    0.000000    -4.350844    0.000000    0.000000    -8.701688    10.691281    0.000000    -0.000000    21.382561    0.000000    -0.000000    10.691281    0.000000    -0.000000    31.614838    0.000000    -0.000000    50.626320    0.000000    -0.000000    31.614838    0.000000    -0.000000    52.538395    0.000000    -0.000000    79.870079    0.000000    -0.000000    52.538395    0.000000    -0.000000    74.095993    0.000000    -0.000000    110.000000    0.000000    -0.000000    74.095993    0.000000    -0.000000    -2.917589    -20.356968    3.364065    -3.712019    18.578375    8.608459    6.136519    -1.257028    -9.436731    -3.121042    -2.834096    7.558144    -5.784429    -23.088879    -0.541022    10.579865    26.767324    -20.141510    -3.342713    -0.493305    7.778122    4.156378    -3.664334    -7.195586    
-2.764423    83.940331    108.358894    -0.105548    9.150061    8.584940    -2.491969    6.224717    -0.364974    -2.772350    35.198524    0.705289    28.401770    16.333895    7.444155    22.974031    -17.875219    16.483221    8.224429    5.388097    -15.887066    -67.336060    33.301151    -23.666559    69.208107    -53.937008    -80.543274    2.882918    -45.546593    -21.139454    7.246245    5.472149    16.017513    -0.000000    0.000000    14.172238    -0.000000    0.000000    28.344477    1.277175    0.000000    -0.000000    0.000000    0.000000    0.000000    0.000000    0.000000    0.000000    -26.398216    -12.214223    7.790576    -36.299995    0.000000    0.000000    -26.400003    0.000000    0.000000    -54.498947    -26.623896    9.012393    -72.600006    0.000000    0.000000    -52.799992    0.000000    0.000000    -88.247215    -39.986797    1.126568    -110.000000    0.000000    0.000000    -80.000000    0.000000    0.000000    -9.754091    4.169261    9.378637    89.400551    36.418541    -3.315805    -91.330132    -43.599297    55.039249    -15.032413    -56.786808    9.831779    -0.936468    1.967778    -4.058654    0.000000    0.000000    -4.362676    0.000000    0.000000    -8.725351    10.718930    0.000000    -0.000000    21.437862    0.000000    -0.000000    10.718930    0.000000    -0.000000    31.642710    0.000000    -0.000000    50.663368    0.000000    -0.000000    31.642710    0.000000    -0.000000    52.566479    0.000000    -0.000000    79.888885    0.000000    -0.000000    52.566479    0.000000    -0.000000    74.124313    0.000000    -0.000000    110.000000    0.000000    -0.000000    74.124313    0.000000    -0.000000    -2.916552    -21.098320    3.240920    -3.792493    19.084703    8.501971    6.122265    -1.341654    -9.059025    -3.107347    -2.765397    7.535209    -5.696239    -23.248583    -0.831151    10.219461    26.315102    -19.567009    -3.327770    -0.955307    7.687547    4.144140    -3.368189    -7.163994    
-2.837308    83.835785    108.177124    -0.092659    9.444673    8.391473    -2.505134    6.676653    -0.020882    -2.712894    35.272720    0.799539    28.604107    15.649170    7.393023    23.224331    -18.209009    16.394707    8.268322    5.385575    -15.865001    -67.311630    33.309002    -23.789478    69.257263    -53.967747    -80.510033    2.917204    -45.597763    -21.080116    7.286375    5.474102    16.057491    -0.000000    0.000000    14.199376    -0.000000    0.000000    28.398748    1.279930    0.000000    -0.000000    0.000000    0.000000    0.000000    0.000000    0.000000    0.000000    -26.401134    -12.215883    7.788949    -36.299995    0.000000    0.000000    -26.400003    0.000000    0.000000    -54.508789    -26.626390    9.006752    -72.600006    0.000000    0.000000    -52.799992    0.000000    0.000000    -88.266876    -39.987087    1.113925    -110.000000    0.000000    0.000000    -80.000000    0.000000    0.000000    -9.725040    4.029766    9.461966    89.441109    36.024265    -3.656321    -91.697777    -43.616508    54.903286    -15.327919    -56.870182    9.619680    -0.926643    1.972806    -4.060618    0.000000    0.000000    -4.369622    0.000000    0.000000    -8.739242    10.740412    0.000000    -0.000000    21.480824    0.000000    -0.000000    10.740412    0.000000    -0.000000    31.661308    0.000000    -0.000000    50.692158    0.000000    -0.000000    31.661308    0.000000    -0.000000    52.582207    0.000000    -0.000000    79.903481    0.000000    -0.000000    52.582207    0.000000    -0.000000    74.137070    0.000000    -0.000000    110.000000    0.000000    -0.000000    74.137070    0.000000    -0.000000    -2.864864    -21.832186    3.175744    -3.875125    19.719906    8.302670    6.091981    -1.561666    -8.552826    -3.090750    -2.662013    7.511932    -5.592452    -23.452353    -1.153215    9.918583    26.037333    -18.964464    -3.371188    -1.434721    7.616168    4.132175    -3.090264    -7.133709    
